<mxfile host="65bd71144e">
    <diagram id="Suj-tyzzf9yo-U5ZwzKX" name="Page-1">
        <mxGraphModel dx="1866" dy="1674" grid="1" gridSize="10" guides="1" tooltips="1" connect="1" arrows="1" fold="1" page="1" pageScale="1" pageWidth="850" pageHeight="1100" math="0" shadow="0">
            <root>
                <mxCell id="0"/>
                <mxCell id="1" parent="0"/>
                <mxCell id="vm0cyW1JP_s3gtMBzeV1-24" value="" style="group" parent="1" connectable="0" vertex="1">
                    <mxGeometry x="-320" y="-330" width="290" height="200" as="geometry"/>
                </mxCell>
                <mxCell id="vm0cyW1JP_s3gtMBzeV1-25" value="Administrador" style="rounded=0;whiteSpace=wrap;html=1;" parent="vm0cyW1JP_s3gtMBzeV1-24" vertex="1">
                    <mxGeometry width="290" height="40" as="geometry"/>
                </mxCell>
                <mxCell id="vm0cyW1JP_s3gtMBzeV1-26" value="- Poder agregar y quitar categorías de ofertas&lt;br&gt;- Poder eliminar ofertas" style="rounded=0;whiteSpace=wrap;html=1;" parent="vm0cyW1JP_s3gtMBzeV1-24" vertex="1">
                    <mxGeometry y="40" width="145" height="160" as="geometry"/>
                </mxCell>
                <mxCell id="vm0cyW1JP_s3gtMBzeV1-27" value="- Categoria&lt;br&gt;- ListaOfertas" style="rounded=0;whiteSpace=wrap;html=1;" parent="vm0cyW1JP_s3gtMBzeV1-24" vertex="1">
                    <mxGeometry x="145" y="40" width="145" height="160" as="geometry"/>
                </mxCell>
                <mxCell id="ticYHxDLqlK435V2blJC-1" value="v" style="group" parent="1" connectable="0" vertex="1">
                    <mxGeometry x="260" y="-315" width="330" height="200" as="geometry"/>
                </mxCell>
                <mxCell id="bVxLJ1EOz7DWde_HZ5Nj-31" value="Trabajador" style="rounded=0;whiteSpace=wrap;html=1;" parent="ticYHxDLqlK435V2blJC-1" vertex="1">
                    <mxGeometry width="330" height="40" as="geometry"/>
                </mxCell>
                <mxCell id="bVxLJ1EOz7DWde_HZ5Nj-32" value="&lt;span style=&quot;&quot;&gt;- Conocer Nombre, Nacimiento, Cedula, Correo, Teléfono, Ubicación&lt;/span&gt;&lt;br style=&quot;&quot;&gt;&lt;span style=&quot;&quot;&gt;- Tener una reputación y ser calificable&lt;/span&gt;&lt;br style=&quot;&quot;&gt;&lt;span style=&quot;&quot;&gt;- Poder ofertar su trabajo con una descripción y sueldo&lt;/span&gt;&lt;br style=&quot;&quot;&gt;&lt;span style=&quot;&quot;&gt;- Poder ser contactado&lt;/span&gt;" style="rounded=0;whiteSpace=wrap;html=1;" parent="ticYHxDLqlK435V2blJC-1" vertex="1">
                    <mxGeometry y="40" width="170" height="160" as="geometry"/>
                </mxCell>
                <mxCell id="bVxLJ1EOz7DWde_HZ5Nj-33" value="- Trabajador&lt;br&gt;- Categoria&lt;br&gt;- OfertaDeServicio&lt;br&gt;- Registro" style="rounded=0;whiteSpace=wrap;html=1;" parent="ticYHxDLqlK435V2blJC-1" vertex="1">
                    <mxGeometry x="170" y="40" width="160" height="160" as="geometry"/>
                </mxCell>
                <mxCell id="ticYHxDLqlK435V2blJC-6" value="v" style="group" parent="1" connectable="0" vertex="1">
                    <mxGeometry x="260" y="-560" width="330" height="200" as="geometry"/>
                </mxCell>
                <mxCell id="ticYHxDLqlK435V2blJC-7" value="Empleador" style="rounded=0;whiteSpace=wrap;html=1;" parent="ticYHxDLqlK435V2blJC-6" vertex="1">
                    <mxGeometry width="330" height="40" as="geometry"/>
                </mxCell>
                <mxCell id="ticYHxDLqlK435V2blJC-8" value="&lt;span style=&quot;&quot;&gt;- Conocer Nombre, Nacimiento, Cedula, Correo, Teléfono, Ubicación&lt;/span&gt;&lt;br style=&quot;&quot;&gt;&lt;span style=&quot;&quot;&gt;- Tener una reputación y ser calificable&lt;/span&gt;&lt;br style=&quot;&quot;&gt;&lt;span style=&quot;&quot;&gt;- Poder buscar trabajadores&lt;/span&gt;&lt;br style=&quot;&quot;&gt;&lt;span style=&quot;&quot;&gt;- Poder ser contactado&lt;/span&gt;" style="rounded=0;whiteSpace=wrap;html=1;" parent="ticYHxDLqlK435V2blJC-6" vertex="1">
                    <mxGeometry y="40" width="170" height="160" as="geometry"/>
                </mxCell>
                <mxCell id="ticYHxDLqlK435V2blJC-9" value="&lt;span style=&quot;&quot;&gt;- Trabajador&lt;/span&gt;&lt;br style=&quot;&quot;&gt;&lt;span style=&quot;&quot;&gt;- Categoria&lt;/span&gt;&lt;br style=&quot;&quot;&gt;&lt;span style=&quot;&quot;&gt;- OfertaDeServicio&lt;br&gt;- Registro&lt;br&gt;&lt;/span&gt;" style="rounded=0;whiteSpace=wrap;html=1;" parent="ticYHxDLqlK435V2blJC-6" vertex="1">
                    <mxGeometry x="170" y="40" width="160" height="160" as="geometry"/>
                </mxCell>
                <mxCell id="W3V98t0Q-XN5IFiKmtNq-1" value="v" style="group" parent="1" connectable="0" vertex="1">
                    <mxGeometry x="260" y="-820" width="330" height="200" as="geometry"/>
                </mxCell>
                <mxCell id="W3V98t0Q-XN5IFiKmtNq-2" value="Registro" style="rounded=0;whiteSpace=wrap;html=1;" parent="W3V98t0Q-XN5IFiKmtNq-1" vertex="1">
                    <mxGeometry width="330" height="40" as="geometry"/>
                </mxCell>
                <mxCell id="W3V98t0Q-XN5IFiKmtNq-3" value="&lt;span style=&quot;&quot;&gt;- Conocer Nombre, Nacimiento, Cedula, Correo, Teléfono, Ubicación&lt;/span&gt;&lt;br style=&quot;&quot;&gt;- Añadir usuario&lt;br&gt;- Remover usuario" style="rounded=0;whiteSpace=wrap;html=1;" parent="W3V98t0Q-XN5IFiKmtNq-1" vertex="1">
                    <mxGeometry y="40" width="170" height="160" as="geometry"/>
                </mxCell>
                <mxCell id="W3V98t0Q-XN5IFiKmtNq-4" value="" style="rounded=0;whiteSpace=wrap;html=1;" parent="W3V98t0Q-XN5IFiKmtNq-1" vertex="1">
                    <mxGeometry x="170" y="40" width="160" height="160" as="geometry"/>
                </mxCell>
                <mxCell id="XaBwfmpE1B-u1NAYIV0M-1" value="v" style="group" parent="1" connectable="0" vertex="1">
                    <mxGeometry x="-160" y="-600" width="340" height="200" as="geometry"/>
                </mxCell>
                <mxCell id="XaBwfmpE1B-u1NAYIV0M-2" value="OfertaDeServicio" style="rounded=0;whiteSpace=wrap;html=1;" parent="XaBwfmpE1B-u1NAYIV0M-1" vertex="1">
                    <mxGeometry width="330" height="40" as="geometry"/>
                </mxCell>
                <mxCell id="XaBwfmpE1B-u1NAYIV0M-3" value="&lt;span style=&quot;&quot;&gt;- Conocer Ofertante, Descripción de la oferta, Empleo, Clasificación, Precio, Ubicación&lt;/span&gt;&lt;br style=&quot;&quot;&gt;" style="rounded=0;whiteSpace=wrap;html=1;" parent="XaBwfmpE1B-u1NAYIV0M-1" vertex="1">
                    <mxGeometry y="40" width="170" height="160" as="geometry"/>
                </mxCell>
                <mxCell id="L-h7vo5x-tvDsKWIynLw-1" value="- Trabajador" style="rounded=0;whiteSpace=wrap;html=1;" parent="XaBwfmpE1B-u1NAYIV0M-1" vertex="1">
                    <mxGeometry x="170" y="40" width="160" height="160" as="geometry"/>
                </mxCell>
                <mxCell id="XaBwfmpE1B-u1NAYIV0M-5" value="v" style="group" parent="1" connectable="0" vertex="1">
                    <mxGeometry x="-530" y="-600" width="330" height="200" as="geometry"/>
                </mxCell>
                <mxCell id="XaBwfmpE1B-u1NAYIV0M-6" value="Categoría" style="rounded=0;whiteSpace=wrap;html=1;" parent="XaBwfmpE1B-u1NAYIV0M-5" vertex="1">
                    <mxGeometry width="330" height="40" as="geometry"/>
                </mxCell>
                <mxCell id="XaBwfmpE1B-u1NAYIV0M-7" value="&lt;span style=&quot;&quot;&gt;- Conocer Ofertas&lt;/span&gt;" style="rounded=0;whiteSpace=wrap;html=1;" parent="XaBwfmpE1B-u1NAYIV0M-5" vertex="1">
                    <mxGeometry y="40" width="170" height="160" as="geometry"/>
                </mxCell>
                <mxCell id="XaBwfmpE1B-u1NAYIV0M-8" value="- ListaOfertas" style="rounded=0;whiteSpace=wrap;html=1;" parent="XaBwfmpE1B-u1NAYIV0M-5" vertex="1">
                    <mxGeometry x="170" y="40" width="160" height="160" as="geometry"/>
                </mxCell>
                <mxCell id="XaBwfmpE1B-u1NAYIV0M-9" value="v" style="group" parent="1" connectable="0" vertex="1">
                    <mxGeometry x="-340" y="-830" width="330" height="200" as="geometry"/>
                </mxCell>
                <mxCell id="XaBwfmpE1B-u1NAYIV0M-10" value="ListaOfertas" style="rounded=0;whiteSpace=wrap;html=1;" parent="XaBwfmpE1B-u1NAYIV0M-9" vertex="1">
                    <mxGeometry width="330" height="40" as="geometry"/>
                </mxCell>
                <mxCell id="XaBwfmpE1B-u1NAYIV0M-11" value="&lt;span style=&quot;&quot;&gt;-- Conocer ListaOfertas&lt;br&gt;- Conocer descripción&lt;br&gt;&lt;/span&gt;" style="rounded=0;whiteSpace=wrap;html=1;" parent="XaBwfmpE1B-u1NAYIV0M-9" vertex="1">
                    <mxGeometry y="40" width="170" height="160" as="geometry"/>
                </mxCell>
                <mxCell id="XaBwfmpE1B-u1NAYIV0M-12" value="- OfertaDeServicio" style="rounded=0;whiteSpace=wrap;html=1;" parent="XaBwfmpE1B-u1NAYIV0M-9" vertex="1">
                    <mxGeometry x="170" y="40" width="160" height="160" as="geometry"/>
                </mxCell>
            </root>
        </mxGraphModel>
    </diagram>
</mxfile>